<mxfile host="app.diagrams.net" agent="Mozilla/5.0 (Macintosh; Intel Mac OS X 10.15; rv:135.0) Gecko/20100101 Firefox/135.0" version="26.0.16">
  <diagram name="Página-1" id="KtQ3wsVLyB8v3Q-0Z42K">
    <mxGraphModel dx="2385" dy="1310" grid="1" gridSize="10" guides="1" tooltips="1" connect="1" arrows="1" fold="1" page="1" pageScale="1" pageWidth="850" pageHeight="1100" math="0" shadow="0">
      <root>
        <mxCell id="0" />
        <mxCell id="1" parent="0" />
        <mxCell id="7KmI6lFeTk_mjmzRVVvJ-1" value="" style="rounded=0;whiteSpace=wrap;html=1;" vertex="1" parent="1">
          <mxGeometry x="670" y="752.5" width="190" height="75" as="geometry" />
        </mxCell>
        <mxCell id="7KmI6lFeTk_mjmzRVVvJ-2" value="DIRECTIVA" style="rounded=0;whiteSpace=wrap;html=1;" vertex="1" parent="1">
          <mxGeometry x="200" y="240" width="160" height="60" as="geometry" />
        </mxCell>
        <mxCell id="7KmI6lFeTk_mjmzRVVvJ-3" value="INSTRUCTOR" style="rounded=0;whiteSpace=wrap;html=1;" vertex="1" parent="1">
          <mxGeometry x="230" y="520" width="160" height="60" as="geometry" />
        </mxCell>
        <mxCell id="7KmI6lFeTk_mjmzRVVvJ-4" value="CLUB" style="rounded=0;whiteSpace=wrap;html=1;" vertex="1" parent="1">
          <mxGeometry x="540" y="240" width="160" height="60" as="geometry" />
        </mxCell>
        <mxCell id="7KmI6lFeTk_mjmzRVVvJ-5" value="CONSEJERO" style="rounded=0;whiteSpace=wrap;html=1;" vertex="1" parent="1">
          <mxGeometry x="600" y="500" width="160" height="60" as="geometry" />
        </mxCell>
        <mxCell id="7KmI6lFeTk_mjmzRVVvJ-6" value="CLASE" style="rounded=0;whiteSpace=wrap;html=1;" vertex="1" parent="1">
          <mxGeometry x="1210" y="435" width="160" height="60" as="geometry" />
        </mxCell>
        <mxCell id="7KmI6lFeTk_mjmzRVVvJ-7" value="UNIDAD" style="rounded=0;whiteSpace=wrap;html=1;" vertex="1" parent="1">
          <mxGeometry x="880" y="585" width="160" height="60" as="geometry" />
        </mxCell>
        <mxCell id="7KmI6lFeTk_mjmzRVVvJ-8" value="TUTOR" style="rounded=0;whiteSpace=wrap;html=1;" vertex="1" parent="1">
          <mxGeometry x="1080" y="150" width="160" height="60" as="geometry" />
        </mxCell>
        <mxCell id="7KmI6lFeTk_mjmzRVVvJ-9" value="NIÑO" style="rounded=0;whiteSpace=wrap;html=1;" vertex="1" parent="1">
          <mxGeometry x="860" y="240" width="160" height="60" as="geometry" />
        </mxCell>
        <mxCell id="7KmI6lFeTk_mjmzRVVvJ-10" value="ESPECIALIDAD" style="rounded=0;whiteSpace=wrap;html=1;" vertex="1" parent="1">
          <mxGeometry x="230" y="760" width="160" height="60" as="geometry" />
        </mxCell>
        <mxCell id="7KmI6lFeTk_mjmzRVVvJ-11" value="REQUISITO" style="rounded=0;whiteSpace=wrap;html=1;" vertex="1" parent="1">
          <mxGeometry x="685" y="760" width="160" height="60" as="geometry" />
        </mxCell>
        <mxCell id="7KmI6lFeTk_mjmzRVVvJ-12" value="Trabaja" style="rhombus;whiteSpace=wrap;html=1;" vertex="1" parent="1">
          <mxGeometry x="1065" y="440" width="50" height="50" as="geometry" />
        </mxCell>
        <mxCell id="7KmI6lFeTk_mjmzRVVvJ-13" value="Tiene" style="rhombus;whiteSpace=wrap;html=1;" vertex="1" parent="1">
          <mxGeometry x="915" y="155" width="50" height="50" as="geometry" />
        </mxCell>
        <mxCell id="7KmI6lFeTk_mjmzRVVvJ-14" value="Pertenece" style="rhombus;whiteSpace=wrap;html=1;" vertex="1" parent="1">
          <mxGeometry x="410" y="242.5" width="60" height="55" as="geometry" />
        </mxCell>
        <mxCell id="7KmI6lFeTk_mjmzRVVvJ-15" value="Participa" style="rhombus;whiteSpace=wrap;html=1;" vertex="1" parent="1">
          <mxGeometry x="750" y="245" width="50" height="50" as="geometry" />
        </mxCell>
        <mxCell id="7KmI6lFeTk_mjmzRVVvJ-16" value="Maneja" style="rhombus;whiteSpace=wrap;html=1;" vertex="1" parent="1">
          <mxGeometry x="430" y="400" width="50" height="50" as="geometry" />
        </mxCell>
        <mxCell id="7KmI6lFeTk_mjmzRVVvJ-17" value="Contiene" style="rhombus;whiteSpace=wrap;html=1;" vertex="1" parent="1">
          <mxGeometry x="595" y="380" width="50" height="50" as="geometry" />
        </mxCell>
        <mxCell id="7KmI6lFeTk_mjmzRVVvJ-18" value="Necesita" style="rhombus;whiteSpace=wrap;html=1;" vertex="1" parent="1">
          <mxGeometry x="1080" y="550" width="50" height="50" as="geometry" />
        </mxCell>
        <mxCell id="7KmI6lFeTk_mjmzRVVvJ-19" value="Ocupa" style="rhombus;whiteSpace=wrap;html=1;" vertex="1" parent="1">
          <mxGeometry x="520" y="765" width="50" height="50" as="geometry" />
        </mxCell>
        <mxCell id="7KmI6lFeTk_mjmzRVVvJ-20" value="Acredita" style="rhombus;whiteSpace=wrap;html=1;" vertex="1" parent="1">
          <mxGeometry x="285" y="625" width="50" height="50" as="geometry" />
        </mxCell>
        <mxCell id="7KmI6lFeTk_mjmzRVVvJ-21" value="" style="endArrow=none;html=1;rounded=0;entryX=0;entryY=0.5;entryDx=0;entryDy=0;exitX=1;exitY=0.5;exitDx=0;exitDy=0;" edge="1" parent="1" source="7KmI6lFeTk_mjmzRVVvJ-2" target="7KmI6lFeTk_mjmzRVVvJ-14">
          <mxGeometry width="50" height="50" relative="1" as="geometry">
            <mxPoint x="680" y="440" as="sourcePoint" />
            <mxPoint x="730" y="390" as="targetPoint" />
          </mxGeometry>
        </mxCell>
        <mxCell id="7KmI6lFeTk_mjmzRVVvJ-22" value="" style="endArrow=none;html=1;rounded=0;entryX=0;entryY=0.5;entryDx=0;entryDy=0;exitX=1;exitY=0.5;exitDx=0;exitDy=0;" edge="1" parent="1" source="7KmI6lFeTk_mjmzRVVvJ-14" target="7KmI6lFeTk_mjmzRVVvJ-4">
          <mxGeometry width="50" height="50" relative="1" as="geometry">
            <mxPoint x="460" y="272.5" as="sourcePoint" />
            <mxPoint x="510" y="277.5" as="targetPoint" />
          </mxGeometry>
        </mxCell>
        <mxCell id="7KmI6lFeTk_mjmzRVVvJ-23" value="" style="endArrow=none;html=1;rounded=0;entryX=0;entryY=0.5;entryDx=0;entryDy=0;exitX=1;exitY=0.5;exitDx=0;exitDy=0;" edge="1" parent="1" target="7KmI6lFeTk_mjmzRVVvJ-15">
          <mxGeometry width="50" height="50" relative="1" as="geometry">
            <mxPoint x="700" y="269.40999999999997" as="sourcePoint" />
            <mxPoint x="770" y="269.40999999999997" as="targetPoint" />
          </mxGeometry>
        </mxCell>
        <mxCell id="7KmI6lFeTk_mjmzRVVvJ-24" value="" style="endArrow=none;html=1;rounded=0;exitX=1;exitY=0.5;exitDx=0;exitDy=0;entryX=0;entryY=0.5;entryDx=0;entryDy=0;" edge="1" parent="1" target="7KmI6lFeTk_mjmzRVVvJ-9">
          <mxGeometry width="50" height="50" relative="1" as="geometry">
            <mxPoint x="800" y="269.40999999999997" as="sourcePoint" />
            <mxPoint x="830" y="300" as="targetPoint" />
          </mxGeometry>
        </mxCell>
        <mxCell id="7KmI6lFeTk_mjmzRVVvJ-25" value="" style="endArrow=none;html=1;rounded=0;exitX=0.5;exitY=1;exitDx=0;exitDy=0;entryX=0;entryY=0.5;entryDx=0;entryDy=0;" edge="1" parent="1" source="7KmI6lFeTk_mjmzRVVvJ-9" target="7KmI6lFeTk_mjmzRVVvJ-12">
          <mxGeometry width="50" height="50" relative="1" as="geometry">
            <mxPoint x="1030" y="304.40999999999997" as="sourcePoint" />
            <mxPoint x="1020" y="370" as="targetPoint" />
            <Array as="points">
              <mxPoint x="940" y="340" />
              <mxPoint x="940" y="420" />
              <mxPoint x="980" y="420" />
            </Array>
          </mxGeometry>
        </mxCell>
        <mxCell id="7KmI6lFeTk_mjmzRVVvJ-26" value="" style="endArrow=none;html=1;rounded=0;entryX=0;entryY=0.5;entryDx=0;entryDy=0;exitX=1;exitY=0.5;exitDx=0;exitDy=0;" edge="1" parent="1" source="7KmI6lFeTk_mjmzRVVvJ-12" target="7KmI6lFeTk_mjmzRVVvJ-6">
          <mxGeometry width="50" height="50" relative="1" as="geometry">
            <mxPoint x="1110" y="340" as="sourcePoint" />
            <mxPoint x="1180" y="340" as="targetPoint" />
          </mxGeometry>
        </mxCell>
        <mxCell id="7KmI6lFeTk_mjmzRVVvJ-27" value="" style="endArrow=none;html=1;rounded=0;entryX=0;entryY=0.5;entryDx=0;entryDy=0;exitX=1;exitY=0.5;exitDx=0;exitDy=0;" edge="1" parent="1" source="7KmI6lFeTk_mjmzRVVvJ-13" target="7KmI6lFeTk_mjmzRVVvJ-8">
          <mxGeometry width="50" height="50" relative="1" as="geometry">
            <mxPoint x="1090" y="189.40999999999997" as="sourcePoint" />
            <mxPoint x="1160" y="189.40999999999997" as="targetPoint" />
            <Array as="points" />
          </mxGeometry>
        </mxCell>
        <mxCell id="7KmI6lFeTk_mjmzRVVvJ-28" value="Registra" style="rhombus;whiteSpace=wrap;html=1;" vertex="1" parent="1">
          <mxGeometry x="860" y="400" width="50" height="50" as="geometry" />
        </mxCell>
        <mxCell id="7KmI6lFeTk_mjmzRVVvJ-29" value="" style="endArrow=none;html=1;rounded=0;entryX=0.5;entryY=0;entryDx=0;entryDy=0;exitX=0.5;exitY=1;exitDx=0;exitDy=0;" edge="1" parent="1" source="7KmI6lFeTk_mjmzRVVvJ-28" target="7KmI6lFeTk_mjmzRVVvJ-7">
          <mxGeometry width="50" height="50" relative="1" as="geometry">
            <mxPoint x="950" y="510" as="sourcePoint" />
            <mxPoint x="1020" y="510" as="targetPoint" />
            <Array as="points">
              <mxPoint x="885" y="500" />
              <mxPoint x="960" y="500" />
            </Array>
          </mxGeometry>
        </mxCell>
        <mxCell id="7KmI6lFeTk_mjmzRVVvJ-30" value="Revisa" style="rhombus;whiteSpace=wrap;html=1;" vertex="1" parent="1">
          <mxGeometry x="740" y="590" width="50" height="50" as="geometry" />
        </mxCell>
        <mxCell id="7KmI6lFeTk_mjmzRVVvJ-31" value="" style="endArrow=none;html=1;rounded=0;entryX=0;entryY=0.5;entryDx=0;entryDy=0;exitX=1;exitY=0.5;exitDx=0;exitDy=0;" edge="1" parent="1" source="7KmI6lFeTk_mjmzRVVvJ-30" target="7KmI6lFeTk_mjmzRVVvJ-7">
          <mxGeometry width="50" height="50" relative="1" as="geometry">
            <mxPoint x="790" y="640" as="sourcePoint" />
            <mxPoint x="860" y="640" as="targetPoint" />
          </mxGeometry>
        </mxCell>
        <mxCell id="7KmI6lFeTk_mjmzRVVvJ-32" value="" style="endArrow=none;html=1;rounded=0;entryX=0;entryY=0.5;entryDx=0;entryDy=0;exitX=0.5;exitY=1;exitDx=0;exitDy=0;" edge="1" parent="1" source="7KmI6lFeTk_mjmzRVVvJ-5" target="7KmI6lFeTk_mjmzRVVvJ-30">
          <mxGeometry width="50" height="50" relative="1" as="geometry">
            <mxPoint x="630" y="625" as="sourcePoint" />
            <mxPoint x="700" y="625" as="targetPoint" />
            <Array as="points">
              <mxPoint x="680" y="615" />
              <mxPoint x="710" y="615" />
            </Array>
          </mxGeometry>
        </mxCell>
        <mxCell id="7KmI6lFeTk_mjmzRVVvJ-33" value="" style="endArrow=none;html=1;rounded=0;entryX=0.5;entryY=0;entryDx=0;entryDy=0;exitX=0.5;exitY=1;exitDx=0;exitDy=0;" edge="1" parent="1" source="7KmI6lFeTk_mjmzRVVvJ-4" target="7KmI6lFeTk_mjmzRVVvJ-17">
          <mxGeometry width="50" height="50" relative="1" as="geometry">
            <mxPoint x="580" y="340" as="sourcePoint" />
            <mxPoint x="650" y="340" as="targetPoint" />
          </mxGeometry>
        </mxCell>
        <mxCell id="7KmI6lFeTk_mjmzRVVvJ-34" value="" style="endArrow=none;html=1;rounded=0;entryX=0.5;entryY=0;entryDx=0;entryDy=0;exitX=0.5;exitY=1;exitDx=0;exitDy=0;" edge="1" parent="1" source="7KmI6lFeTk_mjmzRVVvJ-17" target="7KmI6lFeTk_mjmzRVVvJ-5">
          <mxGeometry width="50" height="50" relative="1" as="geometry">
            <mxPoint x="645" y="454.40999999999997" as="sourcePoint" />
            <mxPoint x="715" y="454.40999999999997" as="targetPoint" />
            <Array as="points">
              <mxPoint x="620" y="460" />
              <mxPoint x="680" y="460" />
            </Array>
          </mxGeometry>
        </mxCell>
        <mxCell id="7KmI6lFeTk_mjmzRVVvJ-35" value="" style="endArrow=none;html=1;rounded=0;exitX=0.5;exitY=0;exitDx=0;exitDy=0;entryX=0;entryY=0.5;entryDx=0;entryDy=0;" edge="1" parent="1" source="7KmI6lFeTk_mjmzRVVvJ-3" target="7KmI6lFeTk_mjmzRVVvJ-16">
          <mxGeometry width="50" height="50" relative="1" as="geometry">
            <mxPoint x="420" y="510" as="sourcePoint" />
            <mxPoint x="450" y="400" as="targetPoint" />
            <Array as="points">
              <mxPoint x="310" y="425" />
            </Array>
          </mxGeometry>
        </mxCell>
        <mxCell id="7KmI6lFeTk_mjmzRVVvJ-36" value="" style="endArrow=none;html=1;rounded=0;entryX=0.5;entryY=1;entryDx=0;entryDy=0;exitX=0.5;exitY=0;exitDx=0;exitDy=0;" edge="1" parent="1" source="7KmI6lFeTk_mjmzRVVvJ-20" target="7KmI6lFeTk_mjmzRVVvJ-3">
          <mxGeometry width="50" height="50" relative="1" as="geometry">
            <mxPoint x="310" y="620" as="sourcePoint" />
            <mxPoint x="350" y="570" as="targetPoint" />
          </mxGeometry>
        </mxCell>
        <mxCell id="7KmI6lFeTk_mjmzRVVvJ-37" value="" style="endArrow=none;html=1;rounded=0;entryX=0.5;entryY=0;entryDx=0;entryDy=0;exitX=0.5;exitY=1;exitDx=0;exitDy=0;" edge="1" parent="1" source="7KmI6lFeTk_mjmzRVVvJ-20" target="7KmI6lFeTk_mjmzRVVvJ-10">
          <mxGeometry width="50" height="50" relative="1" as="geometry">
            <mxPoint x="300" y="700" as="sourcePoint" />
            <mxPoint x="370" y="700" as="targetPoint" />
          </mxGeometry>
        </mxCell>
        <mxCell id="7KmI6lFeTk_mjmzRVVvJ-38" value="" style="endArrow=none;html=1;rounded=0;entryX=0;entryY=0.5;entryDx=0;entryDy=0;exitX=1;exitY=0.5;exitDx=0;exitDy=0;" edge="1" parent="1" source="7KmI6lFeTk_mjmzRVVvJ-10" target="7KmI6lFeTk_mjmzRVVvJ-19">
          <mxGeometry width="50" height="50" relative="1" as="geometry">
            <mxPoint x="435" y="740" as="sourcePoint" />
            <mxPoint x="505" y="740" as="targetPoint" />
          </mxGeometry>
        </mxCell>
        <mxCell id="7KmI6lFeTk_mjmzRVVvJ-39" value="" style="endArrow=none;html=1;rounded=0;entryX=0;entryY=0.5;entryDx=0;entryDy=0;" edge="1" parent="1" target="7KmI6lFeTk_mjmzRVVvJ-1">
          <mxGeometry width="50" height="50" relative="1" as="geometry">
            <mxPoint x="570" y="790" as="sourcePoint" />
            <mxPoint x="660" y="790" as="targetPoint" />
          </mxGeometry>
        </mxCell>
        <mxCell id="7KmI6lFeTk_mjmzRVVvJ-40" value="&lt;u&gt;Id_directivo&lt;/u&gt;" style="ellipse;whiteSpace=wrap;html=1;" vertex="1" parent="1">
          <mxGeometry x="160" y="180" width="80" height="30" as="geometry" />
        </mxCell>
        <mxCell id="7KmI6lFeTk_mjmzRVVvJ-41" value="Rol" style="ellipse;whiteSpace=wrap;html=1;" vertex="1" parent="1">
          <mxGeometry x="260" y="175" width="80" height="30" as="geometry" />
        </mxCell>
        <mxCell id="7KmI6lFeTk_mjmzRVVvJ-42" value="Nombre" style="ellipse;whiteSpace=wrap;html=1;" vertex="1" parent="1">
          <mxGeometry x="100" y="215" width="80" height="35" as="geometry" />
        </mxCell>
        <mxCell id="7KmI6lFeTk_mjmzRVVvJ-43" value="&lt;u&gt;NombreClub&lt;/u&gt;" style="ellipse;whiteSpace=wrap;html=1;" vertex="1" parent="1">
          <mxGeometry x="490" y="155" width="80" height="30" as="geometry" />
        </mxCell>
        <mxCell id="7KmI6lFeTk_mjmzRVVvJ-44" value="Ciudad" style="ellipse;whiteSpace=wrap;html=1;" vertex="1" parent="1">
          <mxGeometry x="650" y="115" width="80" height="30" as="geometry" />
        </mxCell>
        <mxCell id="7KmI6lFeTk_mjmzRVVvJ-45" value="Lema" style="ellipse;whiteSpace=wrap;html=1;" vertex="1" parent="1">
          <mxGeometry x="490" y="195" width="80" height="30" as="geometry" />
        </mxCell>
        <mxCell id="7KmI6lFeTk_mjmzRVVvJ-46" value="Logo" style="ellipse;whiteSpace=wrap;html=1;" vertex="1" parent="1">
          <mxGeometry x="560" y="125" width="80" height="30" as="geometry" />
        </mxCell>
        <mxCell id="7KmI6lFeTk_mjmzRVVvJ-47" value="Dirección" style="ellipse;whiteSpace=wrap;html=1;" vertex="1" parent="1">
          <mxGeometry x="640" y="180" width="80" height="30" as="geometry" />
        </mxCell>
        <mxCell id="7KmI6lFeTk_mjmzRVVvJ-48" value="ApellidoP" style="ellipse;whiteSpace=wrap;html=1;" vertex="1" parent="1">
          <mxGeometry x="10" y="250" width="80" height="25" as="geometry" />
        </mxCell>
        <mxCell id="7KmI6lFeTk_mjmzRVVvJ-49" value="ApellidoM" style="ellipse;whiteSpace=wrap;html=1;" vertex="1" parent="1">
          <mxGeometry x="10" y="210" width="80" height="30" as="geometry" />
        </mxCell>
        <mxCell id="7KmI6lFeTk_mjmzRVVvJ-50" value="Nombre(s)" style="ellipse;whiteSpace=wrap;html=1;" vertex="1" parent="1">
          <mxGeometry x="10" y="175" width="80" height="30" as="geometry" />
        </mxCell>
        <mxCell id="7KmI6lFeTk_mjmzRVVvJ-51" value="Colonia" style="ellipse;whiteSpace=wrap;html=1;" vertex="1" parent="1">
          <mxGeometry x="740" y="150" width="80" height="30" as="geometry" />
        </mxCell>
        <mxCell id="7KmI6lFeTk_mjmzRVVvJ-52" value="calle" style="ellipse;whiteSpace=wrap;html=1;" vertex="1" parent="1">
          <mxGeometry x="725" y="180" width="80" height="30" as="geometry" />
        </mxCell>
        <mxCell id="7KmI6lFeTk_mjmzRVVvJ-53" value="Cp" style="ellipse;whiteSpace=wrap;html=1;" vertex="1" parent="1">
          <mxGeometry x="700" y="210" width="80" height="30" as="geometry" />
        </mxCell>
        <mxCell id="7KmI6lFeTk_mjmzRVVvJ-54" value="Numero" style="ellipse;whiteSpace=wrap;html=1;" vertex="1" parent="1">
          <mxGeometry x="735" y="115" width="80" height="30" as="geometry" />
        </mxCell>
        <mxCell id="7KmI6lFeTk_mjmzRVVvJ-55" value="" style="endArrow=none;html=1;rounded=0;entryX=0.5;entryY=1;entryDx=0;entryDy=0;exitX=0.5;exitY=0;exitDx=0;exitDy=0;" edge="1" parent="1" source="7KmI6lFeTk_mjmzRVVvJ-9" target="7KmI6lFeTk_mjmzRVVvJ-13">
          <mxGeometry width="50" height="50" relative="1" as="geometry">
            <mxPoint x="975" y="190" as="sourcePoint" />
            <mxPoint x="1220" y="190" as="targetPoint" />
            <Array as="points" />
          </mxGeometry>
        </mxCell>
        <mxCell id="7KmI6lFeTk_mjmzRVVvJ-56" value="Ciudad" style="ellipse;whiteSpace=wrap;html=1;" vertex="1" parent="1">
          <mxGeometry x="1050" y="60" width="80" height="30" as="geometry" />
        </mxCell>
        <mxCell id="7KmI6lFeTk_mjmzRVVvJ-57" value="Dirección" style="ellipse;whiteSpace=wrap;html=1;" vertex="1" parent="1">
          <mxGeometry x="1020" y="105" width="80" height="30" as="geometry" />
        </mxCell>
        <mxCell id="7KmI6lFeTk_mjmzRVVvJ-58" value="Colonia" style="ellipse;whiteSpace=wrap;html=1;" vertex="1" parent="1">
          <mxGeometry x="1000" y="20" width="80" height="30" as="geometry" />
        </mxCell>
        <mxCell id="7KmI6lFeTk_mjmzRVVvJ-59" value="calle" style="ellipse;whiteSpace=wrap;html=1;" vertex="1" parent="1">
          <mxGeometry x="930" y="50" width="80" height="30" as="geometry" />
        </mxCell>
        <mxCell id="7KmI6lFeTk_mjmzRVVvJ-60" value="Cp" style="ellipse;whiteSpace=wrap;html=1;" vertex="1" parent="1">
          <mxGeometry x="920" y="85" width="80" height="30" as="geometry" />
        </mxCell>
        <mxCell id="7KmI6lFeTk_mjmzRVVvJ-61" value="Numero" style="ellipse;whiteSpace=wrap;html=1;" vertex="1" parent="1">
          <mxGeometry x="940" y="120" width="80" height="30" as="geometry" />
        </mxCell>
        <mxCell id="7KmI6lFeTk_mjmzRVVvJ-62" value="" style="ellipse;whiteSpace=wrap;html=1;" vertex="1" parent="1">
          <mxGeometry x="1130" y="85" width="100" height="35" as="geometry" />
        </mxCell>
        <mxCell id="7KmI6lFeTk_mjmzRVVvJ-63" value="Telefonos" style="ellipse;whiteSpace=wrap;html=1;" vertex="1" parent="1">
          <mxGeometry x="1140" y="87.5" width="80" height="30" as="geometry" />
        </mxCell>
        <mxCell id="7KmI6lFeTk_mjmzRVVvJ-64" value="Nombre" style="ellipse;whiteSpace=wrap;html=1;" vertex="1" parent="1">
          <mxGeometry x="1240" y="70" width="80" height="30" as="geometry" />
        </mxCell>
        <mxCell id="7KmI6lFeTk_mjmzRVVvJ-65" value="ApellidoM" style="ellipse;whiteSpace=wrap;html=1;" vertex="1" parent="1">
          <mxGeometry x="1330" y="95" width="80" height="25" as="geometry" />
        </mxCell>
        <mxCell id="7KmI6lFeTk_mjmzRVVvJ-66" value="ApellidoP" style="ellipse;whiteSpace=wrap;html=1;" vertex="1" parent="1">
          <mxGeometry x="1340" y="60" width="80" height="30" as="geometry" />
        </mxCell>
        <mxCell id="7KmI6lFeTk_mjmzRVVvJ-67" value="Nombre(s)" style="ellipse;whiteSpace=wrap;html=1;" vertex="1" parent="1">
          <mxGeometry x="1300" y="20" width="80" height="30" as="geometry" />
        </mxCell>
        <mxCell id="7KmI6lFeTk_mjmzRVVvJ-68" value="&lt;u&gt;Id_tutor&lt;/u&gt;" style="ellipse;whiteSpace=wrap;html=1;" vertex="1" parent="1">
          <mxGeometry x="1310" y="125" width="80" height="30" as="geometry" />
        </mxCell>
        <mxCell id="7KmI6lFeTk_mjmzRVVvJ-69" value="" style="endArrow=none;html=1;rounded=0;exitX=0.5;exitY=1;exitDx=0;exitDy=0;entryX=0;entryY=0.5;entryDx=0;entryDy=0;" edge="1" parent="1" target="7KmI6lFeTk_mjmzRVVvJ-18">
          <mxGeometry width="50" height="50" relative="1" as="geometry">
            <mxPoint x="915" y="300" as="sourcePoint" />
            <mxPoint x="1040" y="465" as="targetPoint" />
            <Array as="points">
              <mxPoint x="915" y="340" />
              <mxPoint x="920" y="450" />
              <mxPoint x="1000" y="450" />
              <mxPoint x="1000" y="520" />
              <mxPoint x="1040" y="520" />
              <mxPoint x="1040" y="575" />
            </Array>
          </mxGeometry>
        </mxCell>
        <mxCell id="7KmI6lFeTk_mjmzRVVvJ-70" value="" style="endArrow=none;html=1;rounded=0;exitX=1;exitY=0.5;exitDx=0;exitDy=0;entryX=0.5;entryY=1;entryDx=0;entryDy=0;" edge="1" parent="1" source="7KmI6lFeTk_mjmzRVVvJ-1" target="7KmI6lFeTk_mjmzRVVvJ-18">
          <mxGeometry width="50" height="50" relative="1" as="geometry">
            <mxPoint x="940" y="730" as="sourcePoint" />
            <mxPoint x="1065" y="895" as="targetPoint" />
            <Array as="points">
              <mxPoint x="1105" y="790" />
              <mxPoint x="1105" y="710" />
            </Array>
          </mxGeometry>
        </mxCell>
        <mxCell id="7KmI6lFeTk_mjmzRVVvJ-71" value="Nombre" style="ellipse;whiteSpace=wrap;html=1;" vertex="1" parent="1">
          <mxGeometry x="1035" y="225" width="80" height="30" as="geometry" />
        </mxCell>
        <mxCell id="7KmI6lFeTk_mjmzRVVvJ-72" value="ApellidoM" style="ellipse;whiteSpace=wrap;html=1;" vertex="1" parent="1">
          <mxGeometry x="1140" y="275" width="80" height="25" as="geometry" />
        </mxCell>
        <mxCell id="7KmI6lFeTk_mjmzRVVvJ-73" value="ApellidoP" style="ellipse;whiteSpace=wrap;html=1;" vertex="1" parent="1">
          <mxGeometry x="1140" y="245" width="80" height="30" as="geometry" />
        </mxCell>
        <mxCell id="7KmI6lFeTk_mjmzRVVvJ-74" value="Nombre(s)" style="ellipse;whiteSpace=wrap;html=1;" vertex="1" parent="1">
          <mxGeometry x="1140" y="215" width="80" height="30" as="geometry" />
        </mxCell>
        <mxCell id="7KmI6lFeTk_mjmzRVVvJ-75" value="Enfermedad" style="ellipse;whiteSpace=wrap;html=1;" vertex="1" parent="1">
          <mxGeometry x="990" y="360" width="80" height="30" as="geometry" />
        </mxCell>
        <mxCell id="7KmI6lFeTk_mjmzRVVvJ-76" value="&lt;u&gt;Id_niño&lt;/u&gt;" style="ellipse;whiteSpace=wrap;html=1;" vertex="1" parent="1">
          <mxGeometry x="970" y="195" width="80" height="30" as="geometry" />
        </mxCell>
        <mxCell id="7KmI6lFeTk_mjmzRVVvJ-77" value="FechaNac" style="ellipse;whiteSpace=wrap;html=1;" vertex="1" parent="1">
          <mxGeometry x="1035" y="255" width="80" height="30" as="geometry" />
        </mxCell>
        <mxCell id="7KmI6lFeTk_mjmzRVVvJ-78" value="ContactoEmergencia" style="ellipse;whiteSpace=wrap;html=1;" vertex="1" parent="1">
          <mxGeometry x="1030" y="285" width="120" height="30" as="geometry" />
        </mxCell>
        <mxCell id="7KmI6lFeTk_mjmzRVVvJ-79" value="Sexo" style="ellipse;whiteSpace=wrap;html=1;" vertex="1" parent="1">
          <mxGeometry x="1010" y="315" width="80" height="30" as="geometry" />
        </mxCell>
        <mxCell id="7KmI6lFeTk_mjmzRVVvJ-80" value="" style="endArrow=none;html=1;rounded=0;entryX=0.5;entryY=0;entryDx=0;entryDy=0;exitX=0.25;exitY=1;exitDx=0;exitDy=0;" edge="1" parent="1" source="7KmI6lFeTk_mjmzRVVvJ-9" target="7KmI6lFeTk_mjmzRVVvJ-28">
          <mxGeometry width="50" height="50" relative="1" as="geometry">
            <mxPoint x="895" y="470" as="sourcePoint" />
            <mxPoint x="970" y="595" as="targetPoint" />
            <Array as="points">
              <mxPoint x="900" y="350" />
              <mxPoint x="880" y="350" />
            </Array>
          </mxGeometry>
        </mxCell>
        <mxCell id="7KmI6lFeTk_mjmzRVVvJ-81" value="&lt;u&gt;Nombre&lt;/u&gt;" style="ellipse;whiteSpace=wrap;html=1;" vertex="1" parent="1">
          <mxGeometry x="1190" y="380" width="80" height="30" as="geometry" />
        </mxCell>
        <mxCell id="7KmI6lFeTk_mjmzRVVvJ-82" value="Color" style="ellipse;whiteSpace=wrap;html=1;" vertex="1" parent="1">
          <mxGeometry x="1275" y="370" width="80" height="30" as="geometry" />
        </mxCell>
        <mxCell id="7KmI6lFeTk_mjmzRVVvJ-83" value="Logotipo" style="ellipse;whiteSpace=wrap;html=1;" vertex="1" parent="1">
          <mxGeometry x="1370" y="390" width="80" height="30" as="geometry" />
        </mxCell>
        <mxCell id="7KmI6lFeTk_mjmzRVVvJ-84" value="&lt;u&gt;Nombre&lt;/u&gt;" style="ellipse;whiteSpace=wrap;html=1;" vertex="1" parent="1">
          <mxGeometry x="1020" y="660" width="80" height="30" as="geometry" />
        </mxCell>
        <mxCell id="7KmI6lFeTk_mjmzRVVvJ-85" value="Lema" style="ellipse;whiteSpace=wrap;html=1;" vertex="1" parent="1">
          <mxGeometry x="940" y="690" width="80" height="30" as="geometry" />
        </mxCell>
        <mxCell id="7KmI6lFeTk_mjmzRVVvJ-86" value="Logo" style="ellipse;whiteSpace=wrap;html=1;" vertex="1" parent="1">
          <mxGeometry x="850" y="690" width="80" height="30" as="geometry" />
        </mxCell>
        <mxCell id="7KmI6lFeTk_mjmzRVVvJ-87" value="FechaCompletado" style="ellipse;whiteSpace=wrap;html=1;" vertex="1" parent="1">
          <mxGeometry x="720" y="860" width="110" height="30" as="geometry" />
        </mxCell>
        <mxCell id="7KmI6lFeTk_mjmzRVVvJ-88" value="Sexo" style="ellipse;whiteSpace=wrap;html=1;" vertex="1" parent="1">
          <mxGeometry x="480" y="520" width="80" height="30" as="geometry" />
        </mxCell>
        <mxCell id="7KmI6lFeTk_mjmzRVVvJ-89" value="Aspiracion" style="ellipse;whiteSpace=wrap;html=1;" vertex="1" parent="1">
          <mxGeometry x="540" y="585" width="80" height="30" as="geometry" />
        </mxCell>
        <mxCell id="7KmI6lFeTk_mjmzRVVvJ-90" value="GuiaMayor" style="ellipse;whiteSpace=wrap;html=1;" vertex="1" parent="1">
          <mxGeometry x="480" y="630" width="80" height="30" as="geometry" />
        </mxCell>
        <mxCell id="7KmI6lFeTk_mjmzRVVvJ-91" value="GuiaMenor" style="ellipse;whiteSpace=wrap;html=1;" vertex="1" parent="1">
          <mxGeometry x="590" y="630" width="80" height="30" as="geometry" />
        </mxCell>
        <mxCell id="7KmI6lFeTk_mjmzRVVvJ-92" value="AñoAceptacion" style="ellipse;whiteSpace=wrap;html=1;" vertex="1" parent="1">
          <mxGeometry x="385" y="820" width="80" height="30" as="geometry" />
        </mxCell>
        <mxCell id="7KmI6lFeTk_mjmzRVVvJ-93" value="Numero" style="ellipse;whiteSpace=wrap;html=1;" vertex="1" parent="1">
          <mxGeometry x="305" y="880" width="80" height="30" as="geometry" />
        </mxCell>
        <mxCell id="7KmI6lFeTk_mjmzRVVvJ-94" value="Área" style="ellipse;whiteSpace=wrap;html=1;" vertex="1" parent="1">
          <mxGeometry x="385" y="860" width="80" height="30" as="geometry" />
        </mxCell>
        <mxCell id="7KmI6lFeTk_mjmzRVVvJ-95" value="Nombre" style="ellipse;whiteSpace=wrap;html=1;" vertex="1" parent="1">
          <mxGeometry x="220" y="850" width="80" height="30" as="geometry" />
        </mxCell>
        <mxCell id="7KmI6lFeTk_mjmzRVVvJ-96" value="Nombre" style="ellipse;whiteSpace=wrap;html=1;" vertex="1" parent="1">
          <mxGeometry x="170" y="475" width="80" height="30" as="geometry" />
        </mxCell>
        <mxCell id="7KmI6lFeTk_mjmzRVVvJ-97" value="ApellidoP" style="ellipse;whiteSpace=wrap;html=1;" vertex="1" parent="1">
          <mxGeometry x="60" y="505" width="80" height="25" as="geometry" />
        </mxCell>
        <mxCell id="7KmI6lFeTk_mjmzRVVvJ-98" value="ApellidoM" style="ellipse;whiteSpace=wrap;html=1;" vertex="1" parent="1">
          <mxGeometry x="60" y="465" width="80" height="30" as="geometry" />
        </mxCell>
        <mxCell id="7KmI6lFeTk_mjmzRVVvJ-99" value="Nombre(s)" style="ellipse;whiteSpace=wrap;html=1;" vertex="1" parent="1">
          <mxGeometry x="60" y="430" width="80" height="30" as="geometry" />
        </mxCell>
        <mxCell id="7KmI6lFeTk_mjmzRVVvJ-100" value="&lt;u&gt;Id_Instructor&lt;/u&gt;" style="ellipse;whiteSpace=wrap;html=1;" vertex="1" parent="1">
          <mxGeometry x="205" y="420" width="80" height="30" as="geometry" />
        </mxCell>
        <mxCell id="7KmI6lFeTk_mjmzRVVvJ-101" value="" style="endArrow=none;html=1;rounded=0;exitX=1;exitY=0.5;exitDx=0;exitDy=0;entryX=0;entryY=0.5;entryDx=0;entryDy=0;" edge="1" parent="1" source="7KmI6lFeTk_mjmzRVVvJ-50" target="7KmI6lFeTk_mjmzRVVvJ-42">
          <mxGeometry width="50" height="50" relative="1" as="geometry">
            <mxPoint x="140" y="335" as="sourcePoint" />
            <mxPoint x="190" y="285" as="targetPoint" />
          </mxGeometry>
        </mxCell>
        <mxCell id="7KmI6lFeTk_mjmzRVVvJ-102" value="" style="endArrow=none;html=1;rounded=0;exitX=1;exitY=0.5;exitDx=0;exitDy=0;entryX=0;entryY=0.5;entryDx=0;entryDy=0;" edge="1" parent="1" source="7KmI6lFeTk_mjmzRVVvJ-49" target="7KmI6lFeTk_mjmzRVVvJ-42">
          <mxGeometry width="50" height="50" relative="1" as="geometry">
            <mxPoint x="100" y="200" as="sourcePoint" />
            <mxPoint x="140" y="235" as="targetPoint" />
          </mxGeometry>
        </mxCell>
        <mxCell id="7KmI6lFeTk_mjmzRVVvJ-103" value="" style="endArrow=none;html=1;rounded=0;exitX=1;exitY=0.5;exitDx=0;exitDy=0;entryX=0;entryY=0.5;entryDx=0;entryDy=0;" edge="1" parent="1" source="7KmI6lFeTk_mjmzRVVvJ-48" target="7KmI6lFeTk_mjmzRVVvJ-42">
          <mxGeometry width="50" height="50" relative="1" as="geometry">
            <mxPoint x="110" y="210" as="sourcePoint" />
            <mxPoint x="120" y="250" as="targetPoint" />
          </mxGeometry>
        </mxCell>
        <mxCell id="7KmI6lFeTk_mjmzRVVvJ-104" value="" style="endArrow=none;html=1;rounded=0;exitX=0.5;exitY=1;exitDx=0;exitDy=0;entryX=0.5;entryY=0;entryDx=0;entryDy=0;" edge="1" parent="1" source="7KmI6lFeTk_mjmzRVVvJ-40" target="7KmI6lFeTk_mjmzRVVvJ-2">
          <mxGeometry width="50" height="50" relative="1" as="geometry">
            <mxPoint x="120" y="220" as="sourcePoint" />
            <mxPoint x="160" y="255" as="targetPoint" />
          </mxGeometry>
        </mxCell>
        <mxCell id="7KmI6lFeTk_mjmzRVVvJ-105" value="" style="endArrow=none;html=1;rounded=0;exitX=1;exitY=0.5;exitDx=0;exitDy=0;entryX=0.5;entryY=0;entryDx=0;entryDy=0;" edge="1" parent="1" source="7KmI6lFeTk_mjmzRVVvJ-42" target="7KmI6lFeTk_mjmzRVVvJ-2">
          <mxGeometry width="50" height="50" relative="1" as="geometry">
            <mxPoint x="130" y="230" as="sourcePoint" />
            <mxPoint x="170" y="265" as="targetPoint" />
          </mxGeometry>
        </mxCell>
        <mxCell id="7KmI6lFeTk_mjmzRVVvJ-106" value="" style="endArrow=none;html=1;rounded=0;exitX=0.5;exitY=1;exitDx=0;exitDy=0;entryX=0.5;entryY=0;entryDx=0;entryDy=0;" edge="1" parent="1" source="7KmI6lFeTk_mjmzRVVvJ-41" target="7KmI6lFeTk_mjmzRVVvJ-2">
          <mxGeometry width="50" height="50" relative="1" as="geometry">
            <mxPoint x="140" y="240" as="sourcePoint" />
            <mxPoint x="280" y="240" as="targetPoint" />
          </mxGeometry>
        </mxCell>
        <mxCell id="7KmI6lFeTk_mjmzRVVvJ-107" value="" style="endArrow=none;html=1;rounded=0;exitX=0.5;exitY=1;exitDx=0;exitDy=0;entryX=0.5;entryY=0;entryDx=0;entryDy=0;" edge="1" parent="1" source="7KmI6lFeTk_mjmzRVVvJ-45" target="7KmI6lFeTk_mjmzRVVvJ-4">
          <mxGeometry width="50" height="50" relative="1" as="geometry">
            <mxPoint x="505" y="240" as="sourcePoint" />
            <mxPoint x="545" y="275" as="targetPoint" />
          </mxGeometry>
        </mxCell>
        <mxCell id="7KmI6lFeTk_mjmzRVVvJ-108" value="" style="endArrow=none;html=1;rounded=0;exitX=0.5;exitY=0;exitDx=0;exitDy=0;entryX=1;entryY=0.5;entryDx=0;entryDy=0;" edge="1" parent="1" source="7KmI6lFeTk_mjmzRVVvJ-4" target="7KmI6lFeTk_mjmzRVVvJ-43">
          <mxGeometry width="50" height="50" relative="1" as="geometry">
            <mxPoint x="160" y="260" as="sourcePoint" />
            <mxPoint x="200" y="295" as="targetPoint" />
          </mxGeometry>
        </mxCell>
        <mxCell id="7KmI6lFeTk_mjmzRVVvJ-109" value="" style="endArrow=none;html=1;rounded=0;exitX=0;exitY=0.5;exitDx=0;exitDy=0;entryX=0.5;entryY=0;entryDx=0;entryDy=0;" edge="1" parent="1" source="7KmI6lFeTk_mjmzRVVvJ-47" target="7KmI6lFeTk_mjmzRVVvJ-4">
          <mxGeometry width="50" height="50" relative="1" as="geometry">
            <mxPoint x="170" y="270" as="sourcePoint" />
            <mxPoint x="210" y="305" as="targetPoint" />
          </mxGeometry>
        </mxCell>
        <mxCell id="7KmI6lFeTk_mjmzRVVvJ-110" value="" style="endArrow=none;html=1;rounded=0;exitX=0.5;exitY=1;exitDx=0;exitDy=0;entryX=1;entryY=0.5;entryDx=0;entryDy=0;" edge="1" parent="1" source="7KmI6lFeTk_mjmzRVVvJ-44" target="7KmI6lFeTk_mjmzRVVvJ-47">
          <mxGeometry width="50" height="50" relative="1" as="geometry">
            <mxPoint x="180" y="280" as="sourcePoint" />
            <mxPoint x="220" y="315" as="targetPoint" />
          </mxGeometry>
        </mxCell>
        <mxCell id="7KmI6lFeTk_mjmzRVVvJ-111" value="" style="endArrow=none;html=1;rounded=0;exitX=0;exitY=1;exitDx=0;exitDy=0;entryX=1;entryY=0.5;entryDx=0;entryDy=0;" edge="1" parent="1" source="7KmI6lFeTk_mjmzRVVvJ-54" target="7KmI6lFeTk_mjmzRVVvJ-47">
          <mxGeometry width="50" height="50" relative="1" as="geometry">
            <mxPoint x="190" y="290" as="sourcePoint" />
            <mxPoint x="230" y="325" as="targetPoint" />
          </mxGeometry>
        </mxCell>
        <mxCell id="7KmI6lFeTk_mjmzRVVvJ-112" value="" style="endArrow=none;html=1;rounded=0;entryX=1;entryY=0.5;entryDx=0;entryDy=0;exitX=0;exitY=0.5;exitDx=0;exitDy=0;" edge="1" parent="1" source="7KmI6lFeTk_mjmzRVVvJ-51" target="7KmI6lFeTk_mjmzRVVvJ-47">
          <mxGeometry width="50" height="50" relative="1" as="geometry">
            <mxPoint x="730" y="170" as="sourcePoint" />
            <mxPoint x="240" y="335" as="targetPoint" />
          </mxGeometry>
        </mxCell>
        <mxCell id="7KmI6lFeTk_mjmzRVVvJ-113" value="" style="endArrow=none;html=1;rounded=0;exitX=0;exitY=0.5;exitDx=0;exitDy=0;entryX=1;entryY=0.5;entryDx=0;entryDy=0;" edge="1" parent="1" source="7KmI6lFeTk_mjmzRVVvJ-51" target="7KmI6lFeTk_mjmzRVVvJ-47">
          <mxGeometry width="50" height="50" relative="1" as="geometry">
            <mxPoint x="210" y="310" as="sourcePoint" />
            <mxPoint x="250" y="345" as="targetPoint" />
          </mxGeometry>
        </mxCell>
        <mxCell id="7KmI6lFeTk_mjmzRVVvJ-114" value="" style="endArrow=none;html=1;rounded=0;exitX=0;exitY=0.5;exitDx=0;exitDy=0;" edge="1" parent="1" source="7KmI6lFeTk_mjmzRVVvJ-52">
          <mxGeometry width="50" height="50" relative="1" as="geometry">
            <mxPoint x="220" y="320" as="sourcePoint" />
            <mxPoint x="720" y="195" as="targetPoint" />
          </mxGeometry>
        </mxCell>
        <mxCell id="7KmI6lFeTk_mjmzRVVvJ-115" value="" style="endArrow=none;html=1;rounded=0;exitX=0;exitY=0.5;exitDx=0;exitDy=0;entryX=0;entryY=0.5;entryDx=0;entryDy=0;" edge="1" parent="1" source="7KmI6lFeTk_mjmzRVVvJ-53" target="7KmI6lFeTk_mjmzRVVvJ-52">
          <mxGeometry width="50" height="50" relative="1" as="geometry">
            <mxPoint x="230" y="330" as="sourcePoint" />
            <mxPoint x="270" y="365" as="targetPoint" />
          </mxGeometry>
        </mxCell>
        <mxCell id="7KmI6lFeTk_mjmzRVVvJ-116" value="" style="endArrow=none;html=1;rounded=0;exitX=1;exitY=0.5;exitDx=0;exitDy=0;entryX=0;entryY=0.5;entryDx=0;entryDy=0;" edge="1" parent="1" source="7KmI6lFeTk_mjmzRVVvJ-59" target="7KmI6lFeTk_mjmzRVVvJ-57">
          <mxGeometry width="50" height="50" relative="1" as="geometry">
            <mxPoint x="1025" y="70" as="sourcePoint" />
            <mxPoint x="1055" y="120" as="targetPoint" />
          </mxGeometry>
        </mxCell>
        <mxCell id="7KmI6lFeTk_mjmzRVVvJ-117" value="" style="endArrow=none;html=1;rounded=0;exitX=1;exitY=0.5;exitDx=0;exitDy=0;" edge="1" parent="1" source="7KmI6lFeTk_mjmzRVVvJ-60">
          <mxGeometry width="50" height="50" relative="1" as="geometry">
            <mxPoint x="1020" y="75" as="sourcePoint" />
            <mxPoint x="1020" y="120" as="targetPoint" />
          </mxGeometry>
        </mxCell>
        <mxCell id="7KmI6lFeTk_mjmzRVVvJ-118" value="" style="endArrow=none;html=1;rounded=0;exitX=0;exitY=0.5;exitDx=0;exitDy=0;entryX=1;entryY=0.5;entryDx=0;entryDy=0;" edge="1" parent="1" source="7KmI6lFeTk_mjmzRVVvJ-57" target="7KmI6lFeTk_mjmzRVVvJ-61">
          <mxGeometry width="50" height="50" relative="1" as="geometry">
            <mxPoint x="1030" y="85" as="sourcePoint" />
            <mxPoint x="1040" y="140" as="targetPoint" />
          </mxGeometry>
        </mxCell>
        <mxCell id="7KmI6lFeTk_mjmzRVVvJ-119" value="" style="endArrow=none;html=1;rounded=0;exitX=0.5;exitY=1;exitDx=0;exitDy=0;entryX=0;entryY=0.5;entryDx=0;entryDy=0;" edge="1" parent="1" source="7KmI6lFeTk_mjmzRVVvJ-58" target="7KmI6lFeTk_mjmzRVVvJ-57">
          <mxGeometry width="50" height="50" relative="1" as="geometry">
            <mxPoint x="1040" y="95" as="sourcePoint" />
            <mxPoint x="1050" y="150" as="targetPoint" />
          </mxGeometry>
        </mxCell>
        <mxCell id="7KmI6lFeTk_mjmzRVVvJ-120" value="" style="endArrow=none;html=1;rounded=0;exitX=0;exitY=0.5;exitDx=0;exitDy=0;" edge="1" parent="1" source="7KmI6lFeTk_mjmzRVVvJ-56">
          <mxGeometry width="50" height="50" relative="1" as="geometry">
            <mxPoint x="1050" y="60" as="sourcePoint" />
            <mxPoint x="1020" y="120" as="targetPoint" />
          </mxGeometry>
        </mxCell>
        <mxCell id="7KmI6lFeTk_mjmzRVVvJ-121" value="" style="endArrow=none;html=1;rounded=0;exitX=0.5;exitY=1;exitDx=0;exitDy=0;entryX=0.5;entryY=0;entryDx=0;entryDy=0;" edge="1" parent="1" source="7KmI6lFeTk_mjmzRVVvJ-62" target="7KmI6lFeTk_mjmzRVVvJ-8">
          <mxGeometry width="50" height="50" relative="1" as="geometry">
            <mxPoint x="1060" y="70" as="sourcePoint" />
            <mxPoint x="1040" y="140" as="targetPoint" />
          </mxGeometry>
        </mxCell>
        <mxCell id="7KmI6lFeTk_mjmzRVVvJ-122" value="" style="endArrow=none;html=1;rounded=0;exitX=1;exitY=0.5;exitDx=0;exitDy=0;entryX=0.5;entryY=0;entryDx=0;entryDy=0;" edge="1" parent="1" source="7KmI6lFeTk_mjmzRVVvJ-57" target="7KmI6lFeTk_mjmzRVVvJ-8">
          <mxGeometry width="50" height="50" relative="1" as="geometry">
            <mxPoint x="1070" y="80" as="sourcePoint" />
            <mxPoint x="1050" y="150" as="targetPoint" />
          </mxGeometry>
        </mxCell>
        <mxCell id="7KmI6lFeTk_mjmzRVVvJ-123" value="" style="endArrow=none;html=1;rounded=0;exitX=0.5;exitY=1;exitDx=0;exitDy=0;entryX=0.5;entryY=0;entryDx=0;entryDy=0;" edge="1" parent="1" source="7KmI6lFeTk_mjmzRVVvJ-64" target="7KmI6lFeTk_mjmzRVVvJ-8">
          <mxGeometry width="50" height="50" relative="1" as="geometry">
            <mxPoint x="1080" y="90" as="sourcePoint" />
            <mxPoint x="1060" y="160" as="targetPoint" />
          </mxGeometry>
        </mxCell>
        <mxCell id="7KmI6lFeTk_mjmzRVVvJ-124" value="" style="endArrow=none;html=1;rounded=0;exitX=0;exitY=0.5;exitDx=0;exitDy=0;entryX=0.5;entryY=0;entryDx=0;entryDy=0;" edge="1" parent="1" source="7KmI6lFeTk_mjmzRVVvJ-68" target="7KmI6lFeTk_mjmzRVVvJ-8">
          <mxGeometry width="50" height="50" relative="1" as="geometry">
            <mxPoint x="1100" y="110" as="sourcePoint" />
            <mxPoint x="1080" y="180" as="targetPoint" />
          </mxGeometry>
        </mxCell>
        <mxCell id="7KmI6lFeTk_mjmzRVVvJ-125" value="" style="endArrow=none;html=1;rounded=0;exitX=0.418;exitY=1.048;exitDx=0;exitDy=0;entryX=1;entryY=0.5;entryDx=0;entryDy=0;exitPerimeter=0;" edge="1" parent="1" source="7KmI6lFeTk_mjmzRVVvJ-67" target="7KmI6lFeTk_mjmzRVVvJ-64">
          <mxGeometry width="50" height="50" relative="1" as="geometry">
            <mxPoint x="1110" y="120" as="sourcePoint" />
            <mxPoint x="1090" y="190" as="targetPoint" />
          </mxGeometry>
        </mxCell>
        <mxCell id="7KmI6lFeTk_mjmzRVVvJ-126" value="" style="endArrow=none;html=1;rounded=0;exitX=0;exitY=0.5;exitDx=0;exitDy=0;entryX=1;entryY=0.5;entryDx=0;entryDy=0;" edge="1" parent="1" source="7KmI6lFeTk_mjmzRVVvJ-66" target="7KmI6lFeTk_mjmzRVVvJ-64">
          <mxGeometry width="50" height="50" relative="1" as="geometry">
            <mxPoint x="1120" y="130" as="sourcePoint" />
            <mxPoint x="1320" y="80" as="targetPoint" />
          </mxGeometry>
        </mxCell>
        <mxCell id="7KmI6lFeTk_mjmzRVVvJ-127" value="" style="endArrow=none;html=1;rounded=0;exitX=1;exitY=0.5;exitDx=0;exitDy=0;entryX=0;entryY=0.5;entryDx=0;entryDy=0;" edge="1" parent="1" source="7KmI6lFeTk_mjmzRVVvJ-64" target="7KmI6lFeTk_mjmzRVVvJ-65">
          <mxGeometry width="50" height="50" relative="1" as="geometry">
            <mxPoint x="1130" y="140" as="sourcePoint" />
            <mxPoint x="1110" y="210" as="targetPoint" />
          </mxGeometry>
        </mxCell>
        <mxCell id="7KmI6lFeTk_mjmzRVVvJ-128" value="" style="endArrow=none;html=1;rounded=0;exitX=0.5;exitY=1;exitDx=0;exitDy=0;" edge="1" parent="1" source="7KmI6lFeTk_mjmzRVVvJ-76">
          <mxGeometry width="50" height="50" relative="1" as="geometry">
            <mxPoint x="1140" y="150" as="sourcePoint" />
            <mxPoint x="1020" y="270" as="targetPoint" />
          </mxGeometry>
        </mxCell>
        <mxCell id="7KmI6lFeTk_mjmzRVVvJ-129" value="" style="endArrow=none;html=1;rounded=0;exitX=0;exitY=0.5;exitDx=0;exitDy=0;entryX=1;entryY=0.5;entryDx=0;entryDy=0;" edge="1" parent="1" source="7KmI6lFeTk_mjmzRVVvJ-71" target="7KmI6lFeTk_mjmzRVVvJ-9">
          <mxGeometry width="50" height="50" relative="1" as="geometry">
            <mxPoint x="1150" y="160" as="sourcePoint" />
            <mxPoint x="1130" y="230" as="targetPoint" />
          </mxGeometry>
        </mxCell>
        <mxCell id="7KmI6lFeTk_mjmzRVVvJ-130" value="" style="endArrow=none;html=1;rounded=0;exitX=0;exitY=0.5;exitDx=0;exitDy=0;entryX=1;entryY=0.5;entryDx=0;entryDy=0;" edge="1" parent="1" source="7KmI6lFeTk_mjmzRVVvJ-74" target="7KmI6lFeTk_mjmzRVVvJ-71">
          <mxGeometry width="50" height="50" relative="1" as="geometry">
            <mxPoint x="1160" y="170" as="sourcePoint" />
            <mxPoint x="1140" y="240" as="targetPoint" />
          </mxGeometry>
        </mxCell>
        <mxCell id="7KmI6lFeTk_mjmzRVVvJ-131" value="" style="endArrow=none;html=1;rounded=0;exitX=1;exitY=0.5;exitDx=0;exitDy=0;entryX=0;entryY=0.5;entryDx=0;entryDy=0;" edge="1" parent="1" source="7KmI6lFeTk_mjmzRVVvJ-71" target="7KmI6lFeTk_mjmzRVVvJ-73">
          <mxGeometry width="50" height="50" relative="1" as="geometry">
            <mxPoint x="1170" y="180" as="sourcePoint" />
            <mxPoint x="1150" y="250" as="targetPoint" />
          </mxGeometry>
        </mxCell>
        <mxCell id="7KmI6lFeTk_mjmzRVVvJ-132" value="" style="endArrow=none;html=1;rounded=0;exitX=1;exitY=0.5;exitDx=0;exitDy=0;entryX=0;entryY=0.5;entryDx=0;entryDy=0;" edge="1" parent="1" source="7KmI6lFeTk_mjmzRVVvJ-71" target="7KmI6lFeTk_mjmzRVVvJ-72">
          <mxGeometry width="50" height="50" relative="1" as="geometry">
            <mxPoint x="1180" y="190" as="sourcePoint" />
            <mxPoint x="1160" y="260" as="targetPoint" />
          </mxGeometry>
        </mxCell>
        <mxCell id="7KmI6lFeTk_mjmzRVVvJ-133" value="" style="endArrow=none;html=1;rounded=0;exitX=0;exitY=0.5;exitDx=0;exitDy=0;entryX=1;entryY=0.5;entryDx=0;entryDy=0;" edge="1" parent="1" source="7KmI6lFeTk_mjmzRVVvJ-77" target="7KmI6lFeTk_mjmzRVVvJ-9">
          <mxGeometry width="50" height="50" relative="1" as="geometry">
            <mxPoint x="1190" y="200" as="sourcePoint" />
            <mxPoint x="1170" y="270" as="targetPoint" />
          </mxGeometry>
        </mxCell>
        <mxCell id="7KmI6lFeTk_mjmzRVVvJ-134" value="" style="endArrow=none;html=1;rounded=0;exitX=1;exitY=0.5;exitDx=0;exitDy=0;entryX=0;entryY=0.5;entryDx=0;entryDy=0;" edge="1" parent="1" source="7KmI6lFeTk_mjmzRVVvJ-9" target="7KmI6lFeTk_mjmzRVVvJ-78">
          <mxGeometry width="50" height="50" relative="1" as="geometry">
            <mxPoint x="1200" y="210" as="sourcePoint" />
            <mxPoint x="1180" y="280" as="targetPoint" />
          </mxGeometry>
        </mxCell>
        <mxCell id="7KmI6lFeTk_mjmzRVVvJ-135" value="" style="endArrow=none;html=1;rounded=0;exitX=1;exitY=0.5;exitDx=0;exitDy=0;entryX=0;entryY=0.5;entryDx=0;entryDy=0;" edge="1" parent="1" source="7KmI6lFeTk_mjmzRVVvJ-9" target="7KmI6lFeTk_mjmzRVVvJ-79">
          <mxGeometry width="50" height="50" relative="1" as="geometry">
            <mxPoint x="1210" y="220" as="sourcePoint" />
            <mxPoint x="1190" y="290" as="targetPoint" />
          </mxGeometry>
        </mxCell>
        <mxCell id="7KmI6lFeTk_mjmzRVVvJ-136" value="" style="endArrow=none;html=1;rounded=0;entryX=1;entryY=0.5;entryDx=0;entryDy=0;exitX=0;exitY=0.5;exitDx=0;exitDy=0;" edge="1" parent="1" source="7KmI6lFeTk_mjmzRVVvJ-75" target="7KmI6lFeTk_mjmzRVVvJ-9">
          <mxGeometry width="50" height="50" relative="1" as="geometry">
            <mxPoint x="980" y="330" as="sourcePoint" />
            <mxPoint x="1200" y="300" as="targetPoint" />
          </mxGeometry>
        </mxCell>
        <mxCell id="7KmI6lFeTk_mjmzRVVvJ-137" value="" style="endArrow=none;html=1;rounded=0;exitX=0.5;exitY=1;exitDx=0;exitDy=0;entryX=0.5;entryY=0;entryDx=0;entryDy=0;" edge="1" parent="1" source="7KmI6lFeTk_mjmzRVVvJ-81" target="7KmI6lFeTk_mjmzRVVvJ-6">
          <mxGeometry width="50" height="50" relative="1" as="geometry">
            <mxPoint x="1230" y="240" as="sourcePoint" />
            <mxPoint x="1210" y="310" as="targetPoint" />
          </mxGeometry>
        </mxCell>
        <mxCell id="7KmI6lFeTk_mjmzRVVvJ-138" value="" style="endArrow=none;html=1;rounded=0;exitX=0.5;exitY=1;exitDx=0;exitDy=0;entryX=0.5;entryY=0;entryDx=0;entryDy=0;" edge="1" parent="1" source="7KmI6lFeTk_mjmzRVVvJ-82" target="7KmI6lFeTk_mjmzRVVvJ-6">
          <mxGeometry width="50" height="50" relative="1" as="geometry">
            <mxPoint x="1240" y="250" as="sourcePoint" />
            <mxPoint x="1330" y="440" as="targetPoint" />
          </mxGeometry>
        </mxCell>
        <mxCell id="7KmI6lFeTk_mjmzRVVvJ-139" value="" style="endArrow=none;html=1;rounded=0;exitX=0.5;exitY=0;exitDx=0;exitDy=0;entryX=0;entryY=0.5;entryDx=0;entryDy=0;" edge="1" parent="1" source="7KmI6lFeTk_mjmzRVVvJ-6" target="7KmI6lFeTk_mjmzRVVvJ-83">
          <mxGeometry width="50" height="50" relative="1" as="geometry">
            <mxPoint x="1250" y="260" as="sourcePoint" />
            <mxPoint x="1230" y="330" as="targetPoint" />
          </mxGeometry>
        </mxCell>
        <mxCell id="7KmI6lFeTk_mjmzRVVvJ-140" value="" style="endArrow=none;html=1;rounded=0;exitX=0;exitY=0.5;exitDx=0;exitDy=0;entryX=0.5;entryY=1;entryDx=0;entryDy=0;" edge="1" parent="1" source="7KmI6lFeTk_mjmzRVVvJ-84" target="7KmI6lFeTk_mjmzRVVvJ-7">
          <mxGeometry width="50" height="50" relative="1" as="geometry">
            <mxPoint x="1260" y="270" as="sourcePoint" />
            <mxPoint x="1240" y="340" as="targetPoint" />
          </mxGeometry>
        </mxCell>
        <mxCell id="7KmI6lFeTk_mjmzRVVvJ-141" value="" style="endArrow=none;html=1;rounded=0;exitX=0.5;exitY=1;exitDx=0;exitDy=0;entryX=0.5;entryY=0;entryDx=0;entryDy=0;" edge="1" parent="1" source="7KmI6lFeTk_mjmzRVVvJ-7" target="7KmI6lFeTk_mjmzRVVvJ-86">
          <mxGeometry width="50" height="50" relative="1" as="geometry">
            <mxPoint x="1270" y="280" as="sourcePoint" />
            <mxPoint x="1250" y="350" as="targetPoint" />
          </mxGeometry>
        </mxCell>
        <mxCell id="7KmI6lFeTk_mjmzRVVvJ-142" value="" style="endArrow=none;html=1;rounded=0;exitX=0.5;exitY=1;exitDx=0;exitDy=0;entryX=0.5;entryY=0;entryDx=0;entryDy=0;" edge="1" parent="1" source="7KmI6lFeTk_mjmzRVVvJ-7" target="7KmI6lFeTk_mjmzRVVvJ-85">
          <mxGeometry width="50" height="50" relative="1" as="geometry">
            <mxPoint x="1280" y="290" as="sourcePoint" />
            <mxPoint x="1260" y="360" as="targetPoint" />
          </mxGeometry>
        </mxCell>
        <mxCell id="7KmI6lFeTk_mjmzRVVvJ-143" value="" style="endArrow=none;html=1;rounded=0;exitX=1;exitY=0.5;exitDx=0;exitDy=0;entryX=0;entryY=0.5;entryDx=0;entryDy=0;" edge="1" parent="1" source="7KmI6lFeTk_mjmzRVVvJ-88" target="7KmI6lFeTk_mjmzRVVvJ-5">
          <mxGeometry width="50" height="50" relative="1" as="geometry">
            <mxPoint x="1290" y="300" as="sourcePoint" />
            <mxPoint x="1270" y="370" as="targetPoint" />
          </mxGeometry>
        </mxCell>
        <mxCell id="7KmI6lFeTk_mjmzRVVvJ-144" value="" style="endArrow=none;html=1;rounded=0;exitX=0;exitY=0.5;exitDx=0;exitDy=0;entryX=0.5;entryY=0;entryDx=0;entryDy=0;" edge="1" parent="1" source="7KmI6lFeTk_mjmzRVVvJ-5" target="7KmI6lFeTk_mjmzRVVvJ-89">
          <mxGeometry width="50" height="50" relative="1" as="geometry">
            <mxPoint x="1300" y="310" as="sourcePoint" />
            <mxPoint x="1280" y="380" as="targetPoint" />
          </mxGeometry>
        </mxCell>
        <mxCell id="7KmI6lFeTk_mjmzRVVvJ-145" value="" style="endArrow=none;html=1;rounded=0;exitX=0.5;exitY=1;exitDx=0;exitDy=0;entryX=0.5;entryY=0;entryDx=0;entryDy=0;" edge="1" parent="1" source="7KmI6lFeTk_mjmzRVVvJ-89" target="7KmI6lFeTk_mjmzRVVvJ-90">
          <mxGeometry width="50" height="50" relative="1" as="geometry">
            <mxPoint x="1310" y="320" as="sourcePoint" />
            <mxPoint x="1290" y="390" as="targetPoint" />
          </mxGeometry>
        </mxCell>
        <mxCell id="7KmI6lFeTk_mjmzRVVvJ-146" value="" style="endArrow=none;html=1;rounded=0;exitX=0.5;exitY=1;exitDx=0;exitDy=0;entryX=0.5;entryY=0;entryDx=0;entryDy=0;" edge="1" parent="1" source="7KmI6lFeTk_mjmzRVVvJ-89" target="7KmI6lFeTk_mjmzRVVvJ-91">
          <mxGeometry width="50" height="50" relative="1" as="geometry">
            <mxPoint x="1320" y="330" as="sourcePoint" />
            <mxPoint x="1300" y="400" as="targetPoint" />
          </mxGeometry>
        </mxCell>
        <mxCell id="7KmI6lFeTk_mjmzRVVvJ-147" value="" style="endArrow=none;html=1;rounded=0;exitX=0.539;exitY=1.008;exitDx=0;exitDy=0;entryX=0.5;entryY=0;entryDx=0;entryDy=0;exitPerimeter=0;" edge="1" parent="1" source="7KmI6lFeTk_mjmzRVVvJ-1" target="7KmI6lFeTk_mjmzRVVvJ-87">
          <mxGeometry width="50" height="50" relative="1" as="geometry">
            <mxPoint x="570" y="545" as="sourcePoint" />
            <mxPoint x="610" y="540" as="targetPoint" />
          </mxGeometry>
        </mxCell>
        <mxCell id="7KmI6lFeTk_mjmzRVVvJ-148" value="" style="endArrow=none;html=1;rounded=0;exitX=0.5;exitY=1;exitDx=0;exitDy=0;entryX=0.5;entryY=0;entryDx=0;entryDy=0;" edge="1" parent="1" source="7KmI6lFeTk_mjmzRVVvJ-10" target="7KmI6lFeTk_mjmzRVVvJ-93">
          <mxGeometry width="50" height="50" relative="1" as="geometry">
            <mxPoint x="782" y="838" as="sourcePoint" />
            <mxPoint x="785" y="870" as="targetPoint" />
          </mxGeometry>
        </mxCell>
        <mxCell id="7KmI6lFeTk_mjmzRVVvJ-149" value="" style="endArrow=none;html=1;rounded=0;exitX=0.5;exitY=1;exitDx=0;exitDy=0;entryX=0;entryY=0.5;entryDx=0;entryDy=0;" edge="1" parent="1" source="7KmI6lFeTk_mjmzRVVvJ-10" target="7KmI6lFeTk_mjmzRVVvJ-92">
          <mxGeometry width="50" height="50" relative="1" as="geometry">
            <mxPoint x="792" y="848" as="sourcePoint" />
            <mxPoint x="795" y="880" as="targetPoint" />
          </mxGeometry>
        </mxCell>
        <mxCell id="7KmI6lFeTk_mjmzRVVvJ-150" value="" style="endArrow=none;html=1;rounded=0;exitX=0;exitY=0.5;exitDx=0;exitDy=0;entryX=0.5;entryY=1;entryDx=0;entryDy=0;" edge="1" parent="1" source="7KmI6lFeTk_mjmzRVVvJ-94" target="7KmI6lFeTk_mjmzRVVvJ-10">
          <mxGeometry width="50" height="50" relative="1" as="geometry">
            <mxPoint x="802" y="858" as="sourcePoint" />
            <mxPoint x="805" y="890" as="targetPoint" />
          </mxGeometry>
        </mxCell>
        <mxCell id="7KmI6lFeTk_mjmzRVVvJ-151" value="" style="endArrow=none;html=1;rounded=0;exitX=0.5;exitY=1;exitDx=0;exitDy=0;entryX=0.5;entryY=0;entryDx=0;entryDy=0;" edge="1" parent="1" source="7KmI6lFeTk_mjmzRVVvJ-10" target="7KmI6lFeTk_mjmzRVVvJ-95">
          <mxGeometry width="50" height="50" relative="1" as="geometry">
            <mxPoint x="812" y="868" as="sourcePoint" />
            <mxPoint x="815" y="900" as="targetPoint" />
          </mxGeometry>
        </mxCell>
        <mxCell id="7KmI6lFeTk_mjmzRVVvJ-152" value="" style="endArrow=none;html=1;rounded=0;exitX=1;exitY=0.5;exitDx=0;exitDy=0;entryX=0;entryY=0.5;entryDx=0;entryDy=0;" edge="1" parent="1" source="7KmI6lFeTk_mjmzRVVvJ-98" target="7KmI6lFeTk_mjmzRVVvJ-96">
          <mxGeometry width="50" height="50" relative="1" as="geometry">
            <mxPoint x="190" y="635" as="sourcePoint" />
            <mxPoint x="138" y="717" as="targetPoint" />
          </mxGeometry>
        </mxCell>
        <mxCell id="7KmI6lFeTk_mjmzRVVvJ-153" value="" style="endArrow=none;html=1;rounded=0;exitX=0.25;exitY=1;exitDx=0;exitDy=0;entryX=0.5;entryY=0;entryDx=0;entryDy=0;" edge="1" parent="1" source="7KmI6lFeTk_mjmzRVVvJ-4" target="7KmI6lFeTk_mjmzRVVvJ-16">
          <mxGeometry width="50" height="50" relative="1" as="geometry">
            <mxPoint x="200" y="645" as="sourcePoint" />
            <mxPoint x="148" y="727" as="targetPoint" />
            <Array as="points">
              <mxPoint x="580" y="360" />
              <mxPoint x="455" y="360" />
            </Array>
          </mxGeometry>
        </mxCell>
        <mxCell id="7KmI6lFeTk_mjmzRVVvJ-154" value="" style="endArrow=none;html=1;rounded=0;exitX=1;exitY=0.5;exitDx=0;exitDy=0;entryX=0;entryY=0.5;entryDx=0;entryDy=0;" edge="1" parent="1" source="7KmI6lFeTk_mjmzRVVvJ-99" target="7KmI6lFeTk_mjmzRVVvJ-96">
          <mxGeometry width="50" height="50" relative="1" as="geometry">
            <mxPoint x="210" y="655" as="sourcePoint" />
            <mxPoint x="158" y="737" as="targetPoint" />
          </mxGeometry>
        </mxCell>
        <mxCell id="7KmI6lFeTk_mjmzRVVvJ-155" value="" style="endArrow=none;html=1;rounded=0;exitX=1;exitY=0.5;exitDx=0;exitDy=0;" edge="1" parent="1" source="7KmI6lFeTk_mjmzRVVvJ-97">
          <mxGeometry width="50" height="50" relative="1" as="geometry">
            <mxPoint x="220" y="665" as="sourcePoint" />
            <mxPoint x="168" y="490" as="targetPoint" />
          </mxGeometry>
        </mxCell>
        <mxCell id="7KmI6lFeTk_mjmzRVVvJ-156" value="" style="endArrow=none;html=1;rounded=0;exitX=0.25;exitY=0;exitDx=0;exitDy=0;entryX=1;entryY=0.5;entryDx=0;entryDy=0;" edge="1" parent="1" source="7KmI6lFeTk_mjmzRVVvJ-3" target="7KmI6lFeTk_mjmzRVVvJ-96">
          <mxGeometry width="50" height="50" relative="1" as="geometry">
            <mxPoint x="230" y="675" as="sourcePoint" />
            <mxPoint x="178" y="757" as="targetPoint" />
          </mxGeometry>
        </mxCell>
        <mxCell id="7KmI6lFeTk_mjmzRVVvJ-157" value="" style="endArrow=none;html=1;rounded=0;exitX=1;exitY=1;exitDx=0;exitDy=0;entryX=0.25;entryY=0;entryDx=0;entryDy=0;" edge="1" parent="1" source="7KmI6lFeTk_mjmzRVVvJ-100" target="7KmI6lFeTk_mjmzRVVvJ-3">
          <mxGeometry width="50" height="50" relative="1" as="geometry">
            <mxPoint x="240" y="685" as="sourcePoint" />
            <mxPoint x="188" y="767" as="targetPoint" />
          </mxGeometry>
        </mxCell>
        <mxCell id="7KmI6lFeTk_mjmzRVVvJ-158" value="&lt;u&gt;Id_Consejero&lt;/u&gt;" style="ellipse;whiteSpace=wrap;html=1;" vertex="1" parent="1">
          <mxGeometry x="490" y="465" width="80" height="30" as="geometry" />
        </mxCell>
        <mxCell id="7KmI6lFeTk_mjmzRVVvJ-159" value="" style="endArrow=none;html=1;rounded=0;exitX=1;exitY=0.5;exitDx=0;exitDy=0;entryX=0;entryY=0.5;entryDx=0;entryDy=0;" edge="1" parent="1" source="7KmI6lFeTk_mjmzRVVvJ-158" target="7KmI6lFeTk_mjmzRVVvJ-5">
          <mxGeometry width="50" height="50" relative="1" as="geometry">
            <mxPoint x="570" y="545" as="sourcePoint" />
            <mxPoint x="610" y="540" as="targetPoint" />
          </mxGeometry>
        </mxCell>
        <mxCell id="7KmI6lFeTk_mjmzRVVvJ-160" value="Capitan" style="ellipse;whiteSpace=wrap;html=1;" vertex="1" parent="1">
          <mxGeometry x="770" y="670" width="80" height="30" as="geometry" />
        </mxCell>
        <mxCell id="7KmI6lFeTk_mjmzRVVvJ-161" value="" style="endArrow=none;html=1;rounded=0;entryX=0.5;entryY=0;entryDx=0;entryDy=0;exitX=0.5;exitY=1;exitDx=0;exitDy=0;" edge="1" parent="1" source="7KmI6lFeTk_mjmzRVVvJ-7" target="7KmI6lFeTk_mjmzRVVvJ-160">
          <mxGeometry width="50" height="50" relative="1" as="geometry">
            <mxPoint x="960" y="650" as="sourcePoint" />
            <mxPoint x="1160" y="330" as="targetPoint" />
          </mxGeometry>
        </mxCell>
        <mxCell id="7KmI6lFeTk_mjmzRVVvJ-162" value="Sexo" style="ellipse;whiteSpace=wrap;html=1;" vertex="1" parent="1">
          <mxGeometry x="110" y="540" width="80" height="30" as="geometry" />
        </mxCell>
        <mxCell id="7KmI6lFeTk_mjmzRVVvJ-163" value="" style="endArrow=none;html=1;rounded=0;exitX=1;exitY=0.5;exitDx=0;exitDy=0;entryX=0;entryY=0.5;entryDx=0;entryDy=0;" edge="1" parent="1" source="7KmI6lFeTk_mjmzRVVvJ-162">
          <mxGeometry width="50" height="50" relative="1" as="geometry">
            <mxPoint x="920" y="320" as="sourcePoint" />
            <mxPoint x="230" y="550" as="targetPoint" />
          </mxGeometry>
        </mxCell>
        <mxCell id="7KmI6lFeTk_mjmzRVVvJ-164" value="Sexo" style="ellipse;whiteSpace=wrap;html=1;" vertex="1" parent="1">
          <mxGeometry x="85" y="265" width="80" height="30" as="geometry" />
        </mxCell>
        <mxCell id="7KmI6lFeTk_mjmzRVVvJ-165" value="" style="endArrow=none;html=1;rounded=0;exitX=1;exitY=0.5;exitDx=0;exitDy=0;entryX=0;entryY=0.5;entryDx=0;entryDy=0;" edge="1" parent="1" source="7KmI6lFeTk_mjmzRVVvJ-164" target="7KmI6lFeTk_mjmzRVVvJ-2">
          <mxGeometry width="50" height="50" relative="1" as="geometry">
            <mxPoint x="895" y="45" as="sourcePoint" />
            <mxPoint x="205" y="275" as="targetPoint" />
          </mxGeometry>
        </mxCell>
        <mxCell id="7KmI6lFeTk_mjmzRVVvJ-166" value="Nombre" style="ellipse;whiteSpace=wrap;html=1;" vertex="1" parent="1">
          <mxGeometry x="770" y="530" width="80" height="30" as="geometry" />
        </mxCell>
        <mxCell id="7KmI6lFeTk_mjmzRVVvJ-167" value="ApellidoP" style="ellipse;whiteSpace=wrap;html=1;" vertex="1" parent="1">
          <mxGeometry x="850" y="520" width="80" height="25" as="geometry" />
        </mxCell>
        <mxCell id="7KmI6lFeTk_mjmzRVVvJ-168" value="ApellidoM" style="ellipse;whiteSpace=wrap;html=1;" vertex="1" parent="1">
          <mxGeometry x="805" y="560" width="80" height="30" as="geometry" />
        </mxCell>
        <mxCell id="7KmI6lFeTk_mjmzRVVvJ-169" value="Nombre(s)" style="ellipse;whiteSpace=wrap;html=1;" vertex="1" parent="1">
          <mxGeometry x="800" y="490" width="80" height="30" as="geometry" />
        </mxCell>
        <mxCell id="7KmI6lFeTk_mjmzRVVvJ-170" value="" style="endArrow=none;html=1;rounded=0;exitX=0.5;exitY=0;exitDx=0;exitDy=0;entryX=1;entryY=0.5;entryDx=0;entryDy=0;" edge="1" parent="1" source="7KmI6lFeTk_mjmzRVVvJ-168" target="7KmI6lFeTk_mjmzRVVvJ-166">
          <mxGeometry width="50" height="50" relative="1" as="geometry">
            <mxPoint x="760" y="650" as="sourcePoint" />
            <mxPoint x="800" y="505" as="targetPoint" />
          </mxGeometry>
        </mxCell>
        <mxCell id="7KmI6lFeTk_mjmzRVVvJ-171" value="" style="endArrow=none;html=1;rounded=0;exitX=0.5;exitY=1;exitDx=0;exitDy=0;entryX=1;entryY=0.5;entryDx=0;entryDy=0;" edge="1" parent="1" source="7KmI6lFeTk_mjmzRVVvJ-169" target="7KmI6lFeTk_mjmzRVVvJ-166">
          <mxGeometry width="50" height="50" relative="1" as="geometry">
            <mxPoint x="780" y="670" as="sourcePoint" />
            <mxPoint x="728" y="752" as="targetPoint" />
          </mxGeometry>
        </mxCell>
        <mxCell id="7KmI6lFeTk_mjmzRVVvJ-172" value="" style="endArrow=none;html=1;rounded=0;entryX=1;entryY=0.5;entryDx=0;entryDy=0;exitX=0.337;exitY=1;exitDx=0;exitDy=0;exitPerimeter=0;" edge="1" parent="1" source="7KmI6lFeTk_mjmzRVVvJ-167" target="7KmI6lFeTk_mjmzRVVvJ-166">
          <mxGeometry width="50" height="50" relative="1" as="geometry">
            <mxPoint x="790" y="680" as="sourcePoint" />
            <mxPoint x="738" y="505" as="targetPoint" />
          </mxGeometry>
        </mxCell>
        <mxCell id="7KmI6lFeTk_mjmzRVVvJ-173" value="" style="endArrow=none;html=1;rounded=0;exitX=0;exitY=0.5;exitDx=0;exitDy=0;entryX=1;entryY=0.5;entryDx=0;entryDy=0;" edge="1" parent="1" source="7KmI6lFeTk_mjmzRVVvJ-166" target="7KmI6lFeTk_mjmzRVVvJ-5">
          <mxGeometry width="50" height="50" relative="1" as="geometry">
            <mxPoint x="570" y="545" as="sourcePoint" />
            <mxPoint x="610" y="540" as="targetPoint" />
          </mxGeometry>
        </mxCell>
      </root>
    </mxGraphModel>
  </diagram>
</mxfile>
